<svg xmlns="http://www.w3.org/2000/svg" width="16" height="15" viewBox="0 0 16 15">
    <path fill="rgba(255, 255, 255, .5)" d="M2.98 14.442l3.114-2.741c.017-.018.03-.038.046-.057.985.65 2.163 1.028 3.43 1.028 3.449 0 6.244-2.795 6.244-6.243 0-3.448-2.795-6.243-6.243-6.243-3.448 0-6.243 2.795-6.243 6.243 0 1.268.379 2.446 1.028 3.431-.019.016-.04.028-.057.046l-3.114 2.741c-.495.496-.495 1.3 0 1.795.496.495 1.3.495 1.795 0zm2.71-7.929c0-2.096 1.7-3.796 3.797-3.796 2.096 0 3.796 1.7 3.796 3.796 0 2.097-1.7 3.797-3.796 3.797-2.097 0-3.797-1.7-3.797-3.797z"/>
</svg>